<svg xmlns="http://www.w3.org/2000/svg" width="15.809" height="12.84" viewBox="0 0 15.809 12.84">
  <path id="Icon_awesome-twitter" data-name="Icon awesome-twitter" d="M14.184,6.581c.01.14.01.281.01.421a9.155,9.155,0,0,1-9.219,9.219A9.156,9.156,0,0,1,0,14.766a6.7,6.7,0,0,0,.782.04A6.489,6.489,0,0,0,4.8,13.422a3.246,3.246,0,0,1-3.029-2.247,4.086,4.086,0,0,0,.612.05,3.427,3.427,0,0,0,.853-.11,3.241,3.241,0,0,1-2.6-3.18v-.04a3.263,3.263,0,0,0,1.465.411,3.245,3.245,0,0,1-1-4.333A9.21,9.21,0,0,0,7.784,7.363a3.658,3.658,0,0,1-.08-.742A3.243,3.243,0,0,1,13.311,4.4a6.379,6.379,0,0,0,2.056-.782,3.231,3.231,0,0,1-1.424,1.786,6.5,6.5,0,0,0,1.866-.5,6.965,6.965,0,0,1-1.625,1.675Z" transform="translate(0 -3.381)" fill="#fff"/>
</svg>
